<svg width="14" height="13" viewBox="0 0 14 13" fill="none" xmlns="http://www.w3.org/2000/svg">
<path d="M10.6212 5.62335L5.19101 0.366722C5.07195 0.25052 4.93031 0.158288 4.77424 0.0953466C4.61818 0.0324051 4.45078 0 4.28171 0C4.11265 0 3.94525 0.0324051 3.78919 0.0953466C3.63312 0.158288 3.49148 0.25052 3.37242 0.366722C3.13389 0.599008 3 0.91323 3 1.24076C3 1.56829 3.13389 1.88251 3.37242 2.1148L7.90609 6.50358L3.37242 10.8924C3.13389 11.1247 3 11.4389 3 11.7664C3 12.0939 3.13389 12.4082 3.37242 12.6404C3.49209 12.7553 3.63401 12.8463 3.79005 12.908C3.94608 12.9696 4.11317 13.0009 4.28171 13C4.45026 13.0009 4.61734 12.9696 4.77338 12.908C4.92942 12.8463 5.07134 12.7553 5.19101 12.6404L10.6212 7.38382C10.7412 7.26857 10.8365 7.13145 10.9015 6.98037C10.9665 6.82929 11 6.66725 11 6.50358C11 6.33992 10.9665 6.17787 10.9015 6.0268C10.8365 5.87572 10.7412 5.7386 10.6212 5.62335Z" fill="white"/>
</svg>
