<svg width="24" height="24" viewBox="0 0 24 24" fill="none" xmlns="http://www.w3.org/2000/svg">
<path d="M8 5V19H20V5H8ZM4 19H6V9H4V19ZM22 19C22 20.1046 21.1046 21 20 21H4C2.89543 21 2 20.1046 2 19V9C2 7.89543 2.89543 7 4 7H6V5C6 3.89543 6.89543 3 8 3H20C21.1046 3 22 3.89543 22 5V19Z" fill="#128AEB"/>
<path d="M12 12C12 12.5523 11.5523 13 11 13C10.4477 13 10 12.5523 10 12C10 11.4477 10.4477 11 11 11C11.5523 11 12 11.4477 12 12Z" fill="#128AEB"/>
<path d="M18 12C18 12.5523 17.5523 13 17 13C16.4477 13 16 12.5523 16 12C16 11.4477 16.4477 11 17 11C17.5523 11 18 11.4477 18 12Z" fill="#128AEB"/>
<path d="M18 16C18 16.5523 17.5523 17 17 17C16.4477 17 16 16.5523 16 16C16 15.4477 16.4477 15 17 15C17.5523 15 18 15.4477 18 16Z" fill="#128AEB"/>
<path d="M12 16C12 16.5523 11.5523 17 11 17C10.4477 17 10 16.5523 10 16C10 15.4477 10.4477 15 11 15C11.5523 15 12 15.4477 12 16Z" fill="#128AEB"/>
<path d="M12 8C12 8.55228 11.5523 9 11 9C10.4477 9 10 8.55228 10 8C10 7.44772 10.4477 7 11 7C11.5523 7 12 7.44772 12 8Z" fill="#128AEB"/>
<path d="M18 8C18 8.55228 17.5523 9 17 9C16.4477 9 16 8.55228 16 8C16 7.44772 16.4477 7 17 7C17.5523 7 18 7.44772 18 8Z" fill="#128AEB"/>
</svg>
