<?xml version="1.0" encoding="UTF-8"?>
<svg width="24" height="24" viewBox="0 0 24 24" fill="none" xmlns="http://www.w3.org/2000/svg">
    <path d="M18.364 5.636L14.828 2.1M18.364 5.636L21.9 9.172M18.364 5.636L15.536 8.464M14.828 2.1L11.293 5.636M14.828 2.1L9.172 2.1M9.172 2.1L5.636 5.636M9.172 2.1L8.464 8.464M5.636 5.636L2.1 9.172M5.636 5.636L8.464 8.464M2.1 9.172L2.1 14.828M2.1 9.172L8.464 8.464M21.9 9.172L21.9 14.828M21.9 9.172L15.536 8.464M21.9 14.828L18.364 18.364M21.9 14.828L15.536 15.536M18.364 18.364L14.828 21.9M18.364 18.364L15.536 15.536M14.828 21.9L9.172 21.9M14.828 21.9L15.536 15.536M9.172 21.9L5.636 18.364M9.172 21.9L8.464 15.536M5.636 18.364L2.1 14.828M5.636 18.364L8.464 15.536M2.1 14.828L8.464 15.536M15.536 15.536L12 12M8.464 15.536L12 12M8.464 8.464L12 12M15.536 8.464L12 12" stroke="currentColor" stroke-width="2" stroke-linecap="round" stroke-linejoin="round"/>
</svg>
