<svg width="24" height="24" viewBox="0 0 24 24" fill="none" xmlns="http://www.w3.org/2000/svg">
<g clip-path="url(#clip0_4505_340)">
<path d="M17.5466 18.6902C17.6801 18.825 17.8515 18.9167 18.0383 18.9532C18.2194 18.9912 18.408 18.9715 18.5772 18.8968C18.7506 18.8255 18.8988 18.7046 19.0027 18.5494C19.0964 18.4082 19.1499 18.2445 19.1576 18.0755C19.1653 17.9066 19.127 17.7388 19.0466 17.5897C18.9662 17.4406 18.8468 17.3159 18.7009 17.2286C18.5551 17.1414 18.3882 17.0949 18.2179 17.094C18.0323 17.0941 17.8509 17.1485 17.6962 17.2504C17.5415 17.3522 17.4205 17.4971 17.3481 17.6668C17.2751 17.8387 17.2553 18.0283 17.2913 18.2114C17.3272 18.3924 17.416 18.559 17.5466 18.6902Z" fill="#128AEB"/>
<path d="M9.70824 5.82619H6.87168C6.74725 5.82547 6.62389 5.84915 6.50869 5.89588C6.39349 5.9426 6.28872 6.01147 6.20037 6.0985C6.11274 6.18623 6.04339 6.29027 5.99634 6.40467C5.94929 6.51908 5.92544 6.64158 5.92616 6.76515C5.92616 7.01418 6.02579 7.25303 6.20311 7.42912C6.38043 7.60521 6.62092 7.70412 6.87168 7.70412H9.70824C9.83334 7.70361 9.9571 7.67846 10.0723 7.63011C10.1876 7.58175 10.292 7.51116 10.3796 7.42244C10.5542 7.24755 10.6527 7.01148 10.6538 6.76515C10.6538 6.51613 10.5542 6.27731 10.3768 6.10122C10.1995 5.92513 9.95901 5.82619 9.70824 5.82619Z" fill="#128AEB"/>
<path d="M15.3814 5.82617C15.1958 5.82632 15.0143 5.88072 14.8597 5.98257C14.705 6.08442 14.5839 6.22924 14.5115 6.39896C14.4386 6.57086 14.4188 6.76045 14.4548 6.94355C14.4908 7.12697 14.5812 7.29555 14.7142 7.4277C14.8473 7.55985 15.017 7.64955 15.2017 7.68534C15.3829 7.72337 15.5715 7.70366 15.7407 7.629C15.9141 7.5577 16.0622 7.43676 16.1662 7.28159C16.2598 7.14037 16.3133 6.97664 16.321 6.80772C16.3288 6.6388 16.2904 6.47094 16.21 6.32187C16.1297 6.17281 16.0102 6.04807 15.8644 5.96082C15.7185 5.87357 15.5517 5.82704 15.3814 5.82617Z" fill="#128AEB"/>
<path d="M18.2179 5.82617C18.0323 5.82632 17.8509 5.88072 17.6962 5.98257C17.5415 6.08442 17.4205 6.22924 17.3481 6.39896C17.2751 6.57086 17.2553 6.76045 17.2913 6.94355C17.3273 7.12697 17.4177 7.29555 17.5508 7.4277C17.6838 7.55985 17.8536 7.64955 18.0383 7.68534C18.2194 7.72337 18.408 7.70366 18.5772 7.629C18.7506 7.5577 18.8988 7.43676 19.0027 7.28159C19.0964 7.14037 19.1499 6.97664 19.1576 6.80772C19.1653 6.6388 19.127 6.47094 19.0466 6.32187C18.9662 6.17281 18.8468 6.04807 18.7009 5.96082C18.5551 5.87357 18.3882 5.82704 18.2179 5.82617Z" fill="#128AEB"/>
<path d="M22 5.8169C22 5.06981 21.7012 4.35334 21.1692 3.82506C20.6373 3.29679 19.9157 3 19.1634 3H5.92616C5.17386 3 4.45238 3.29679 3.92042 3.82506C3.38846 4.35334 3.0896 5.06981 3.0896 5.8169V7.69484C3.09377 8.38972 3.35643 9.05856 3.8271 9.57277C3.35643 10.087 3.09377 10.7558 3.0896 11.4507C4.19069 10.7517 5.47026 10.3802 6.77712 10.3803C7.21172 10.3824 7.64525 10.4232 8.07248 10.5024H19.1634C19.4142 10.5024 19.6547 10.6013 19.832 10.7774C20.0094 10.9535 20.109 11.1923 20.109 11.4413V13.3193C20.1097 13.4428 20.0858 13.5653 20.0388 13.6797C19.9917 13.7942 19.9224 13.8982 19.8348 13.9859C19.7464 14.073 19.6416 14.1418 19.5264 14.1885C19.4112 14.2352 19.2879 14.259 19.1634 14.2582H12.9987C13.2874 14.8524 13.4881 15.4849 13.5943 16.1362H19.1634C19.4142 16.1362 19.6547 16.2351 19.832 16.4112C20.0094 16.5873 20.109 16.8261 20.109 17.0751V18.9531C20.1097 19.0766 20.0858 19.1992 20.0388 19.3136C19.9917 19.428 19.9224 19.532 19.8348 19.6197C19.7464 19.7068 19.6416 19.7756 19.5264 19.8223C19.4112 19.869 19.2879 19.8928 19.1634 19.892H13.1972C12.9058 20.5783 12.5033 21.2126 12.0058 21.77H19.1918C19.9439 21.7693 20.6649 21.4721 21.1963 20.9437C21.7284 20.4159 22.0277 19.6999 22.0284 18.9531V17.0751C22.0242 16.3803 21.7615 15.7114 21.2909 15.1972C21.7615 14.683 22.0242 14.0142 22.0284 13.3193V11.4413C22.0242 10.7464 21.7615 10.0776 21.2909 9.5634C21.7615 9.04919 22.0242 8.38035 22.0284 7.68547L22 5.8169ZM20.109 7.69484C20.1097 7.81841 20.0858 7.94091 20.0388 8.05532C19.9917 8.16972 19.9224 8.27379 19.8348 8.36152C19.7464 8.44855 19.6416 8.51739 19.5264 8.56411C19.4112 8.61084 19.2879 8.63452 19.1634 8.6338H5.92616C5.80172 8.63452 5.67836 8.61084 5.56316 8.56411C5.44796 8.51739 5.3432 8.44855 5.25485 8.36152C5.16722 8.27379 5.09787 8.16972 5.05082 8.05532C5.00376 7.94091 4.97992 7.81841 4.98064 7.69484V5.8169C4.98064 5.56787 5.08027 5.32906 5.25759 5.15297C5.43491 4.97687 5.67539 4.87793 5.92616 4.87793H19.1634C19.4142 4.87793 19.6547 4.97687 19.832 5.15297C20.0094 5.32906 20.109 5.56787 20.109 5.8169V7.69484Z" fill="#128AEB"/>
<path d="M14.7101 18.6902C14.8436 18.825 15.0149 18.9167 15.2017 18.9532C15.3829 18.9912 15.5715 18.9715 15.7407 18.8968C15.9141 18.8255 16.0622 18.7046 16.1662 18.5494C16.2598 18.4082 16.3133 18.2445 16.321 18.0755C16.3288 17.9066 16.2904 17.7388 16.21 17.5897C16.1297 17.4406 16.0102 17.3159 15.8644 17.2286C15.7185 17.1414 15.5517 17.0949 15.3814 17.094C15.1958 17.0941 15.0143 17.1485 14.8597 17.2504C14.705 17.3522 14.5839 17.4971 14.5115 17.6668C14.4386 17.8387 14.4188 18.0283 14.4548 18.2114C14.4906 18.3924 14.5794 18.559 14.7101 18.6902Z" fill="#128AEB"/>
<path d="M17.5466 13.0565C17.6801 13.1913 17.8515 13.2829 18.0383 13.3194C18.2194 13.3574 18.408 13.3377 18.5772 13.263C18.7506 13.1917 18.8988 13.0708 19.0027 12.9156C19.0964 12.7744 19.1499 12.6107 19.1576 12.4418C19.1653 12.2728 19.127 12.105 19.0466 11.9559C18.9662 11.8068 18.8468 11.6821 18.7009 11.5949C18.5551 11.5076 18.3882 11.4611 18.2179 11.4602C18.0323 11.4604 17.8509 11.5148 17.6962 11.6166C17.5415 11.7185 17.4205 11.8633 17.3481 12.033C17.2751 12.2049 17.2553 12.3945 17.2913 12.5776C17.3272 12.7586 17.416 12.9252 17.5466 13.0565Z" fill="#128AEB"/>
<path d="M14.7101 13.0565C14.8436 13.1913 15.0149 13.2829 15.2017 13.3194C15.3829 13.3574 15.5715 13.3377 15.7407 13.263C15.9141 13.1917 16.0622 13.0708 16.1662 12.9156C16.2598 12.7744 16.3133 12.6107 16.321 12.4418C16.3288 12.2728 16.2904 12.105 16.21 11.9559C16.1297 11.8068 16.0102 11.6821 15.8644 11.5949C15.7185 11.5076 15.5517 11.4611 15.3814 11.4602C15.1958 11.4604 15.0143 11.5148 14.8597 11.6166C14.705 11.7185 14.5839 11.8633 14.5115 12.033C14.4386 12.2049 14.4188 12.3945 14.4548 12.5776C14.4906 12.7586 14.5794 12.9252 14.7101 13.0565Z" fill="#128AEB"/>
<path d="M12.4502 16.1549C12.2341 15.0416 11.6875 14.0181 10.8807 13.2159C9.79968 12.1465 8.33604 11.5461 6.81022 11.5461C5.2844 11.5461 3.82076 12.1465 2.73976 13.2159C2.13824 13.8166 1.67815 14.5422 1.39252 15.3404C1.1069 16.1387 1.00284 16.9898 1.08782 17.8328C1.17279 18.6757 1.44468 19.4895 1.88398 20.2157C2.32328 20.9419 2.91906 21.5624 3.62855 22.0328C4.57776 22.6628 5.69365 22.9994 6.83532 23C7.977 23.0007 9.09326 22.6654 10.0432 22.0365C10.9931 21.4076 11.7341 20.5132 12.1726 19.4664C12.6111 18.4196 12.7275 17.2673 12.507 16.1549H12.4502ZM8.78162 21.3943C8.15729 21.691 7.47398 21.845 6.78186 21.845C6.08973 21.845 5.40642 21.691 4.78209 21.3943C4.15928 21.0938 3.61054 20.661 3.17469 20.1267H5.50067C5.66034 20.3068 5.85702 20.4509 6.07745 20.5492C6.29665 20.65 6.53559 20.7013 6.77712 20.6995C7.02012 20.7001 7.2605 20.6494 7.48222 20.5506C7.70394 20.4519 7.90194 20.3074 8.06305 20.1267H10.3607C9.93653 20.6613 9.3969 21.0945 8.78162 21.3943ZM6.20037 18.9812C6.20158 18.8667 6.23785 18.7554 6.30436 18.6619C6.36604 18.5664 6.45491 18.4912 6.55967 18.446C6.66753 18.4133 6.78272 18.4133 6.89058 18.446C7.00489 18.4628 7.11071 18.5158 7.19243 18.5969C7.27415 18.6781 7.32745 18.7831 7.34444 18.8967C7.37733 19.0038 7.37733 19.1182 7.34444 19.2253C7.29644 19.3304 7.22143 19.4211 7.12696 19.4882C7.03023 19.5476 6.91919 19.58 6.80549 19.5821C6.65252 19.5821 6.50582 19.5218 6.39765 19.4143C6.28949 19.3069 6.22873 19.1612 6.22873 19.0093L6.20037 18.9812ZM10.4174 17.6666C10.5266 17.7708 10.6726 17.8281 10.8239 17.8262H11.3629C11.3147 18.2229 11.2129 18.6114 11.0603 18.9812H8.51688C8.5164 18.6243 8.40404 18.2764 8.1954 17.9859C7.98996 17.6981 7.69902 17.4814 7.36334 17.3661V15.4882C7.36166 15.3368 7.30061 15.1919 7.19315 15.0845C7.13906 15.0296 7.07425 14.9864 7.00271 14.9573C6.93117 14.9282 6.8544 14.914 6.77712 14.9154C6.70143 14.9152 6.62647 14.9301 6.55664 14.9591C6.48682 14.9882 6.42354 15.0308 6.37056 15.0845C6.2631 15.1919 6.20205 15.3368 6.20037 15.4882V17.3661C5.86469 17.4814 5.57375 17.6981 5.36831 17.9859C5.15967 18.2764 5.04732 18.6243 5.04683 18.9812H2.49392C2.34876 18.6096 2.25031 18.2217 2.20081 17.8262H2.73976C2.89076 17.8261 3.03608 17.7691 3.14633 17.6666C3.22522 17.5853 3.27861 17.483 3.29998 17.3721C3.32135 17.2612 3.3098 17.1465 3.26671 17.042C3.22362 16.9375 3.15087 16.8477 3.05731 16.7836C2.96375 16.7194 2.85342 16.6837 2.73976 16.6807H2.20081C2.30643 15.8645 2.63323 15.0921 3.14633 14.4459L3.52453 14.8216C3.57404 14.8756 3.63555 14.9173 3.70418 14.9436C3.7764 14.9726 3.85327 14.9885 3.93113 14.9906C4.00606 14.9896 4.08 14.9736 4.14858 14.9436C4.21966 14.9167 4.2842 14.8752 4.33798 14.8218C4.39176 14.7684 4.43357 14.7043 4.46062 14.6337C4.49082 14.5656 4.50689 14.4922 4.50788 14.4178C4.50579 14.3405 4.48979 14.2641 4.46062 14.1924C4.43418 14.1243 4.39208 14.0632 4.33769 14.014L3.95949 13.6384C4.61017 13.1289 5.38792 12.8044 6.20981 12.6995V13.2253C6.22788 13.3658 6.2969 13.4949 6.40394 13.5885C6.51098 13.682 6.64871 13.7337 6.79132 13.7337C6.93393 13.7337 7.07163 13.682 7.17867 13.5885C7.28571 13.4949 7.35473 13.3658 7.37281 13.2253V12.6901C8.19419 12.7968 8.97151 13.1211 9.62315 13.629L9.24495 14.0046C9.19062 14.0571 9.14744 14.1199 9.11795 14.1893C9.08847 14.2586 9.07329 14.3331 9.07329 14.4084C9.07329 14.4837 9.08847 14.5582 9.11795 14.6275C9.14744 14.6969 9.19062 14.7597 9.24495 14.8122C9.29781 14.8661 9.36103 14.909 9.43086 14.9383C9.50069 14.9675 9.57571 14.9826 9.65151 14.9826C9.72731 14.9826 9.80233 14.9675 9.87217 14.9383C9.942 14.909 10.0052 14.8661 10.0581 14.8122L10.4363 14.4366C10.9494 15.0827 11.2762 15.8551 11.3818 16.6713H10.8429C10.6904 16.673 10.5445 16.7336 10.4363 16.8403C10.3283 16.9492 10.2678 17.0959 10.2678 17.2488C10.2678 17.4016 10.3283 17.5483 10.4363 17.6572L10.4174 17.6666Z" fill="#128AEB"/>
</g>
<defs>
<clipPath id="clip0_4505_340">
<rect width="21" height="20" fill="white" transform="translate(1 3)"/>
</clipPath>
</defs>
</svg>
