<svg width="960" height="197" viewBox="0 0 960 197" fill="none" xmlns="http://www.w3.org/2000/svg">
<path d="M297.168 164.478C285.657 164.775 274.287 161.895 264.306 156.154C255.128 150.636 247.756 142.564 243.092 132.925C238.202 122.049 235.673 110.259 235.673 98.3344C235.673 86.4094 238.202 74.6199 243.092 63.7437C247.773 54.0983 255.14 46.0093 264.306 40.4482C274.259 34.6275 285.643 31.7089 297.168 32.0229C312.408 32.0229 324.85 35.7713 334.495 43.2679C344.365 51.179 350.896 62.5152 352.789 75.0221H328.62C327.229 68.3065 323.537 62.2875 318.181 58.0039C312.031 53.5594 304.544 51.3558 296.967 51.7603C289.653 51.561 282.441 53.51 276.222 57.3661C270.231 61.2522 265.551 66.8559 262.796 73.4446C259.507 81.3499 257.917 89.8587 258.13 98.4184C257.903 106.925 259.494 115.382 262.796 123.224C265.594 129.743 270.267 135.281 276.222 139.135C282.444 142.979 289.656 144.916 296.967 144.707C304.469 145.104 311.902 143.093 318.181 138.967C323.473 135.059 327.179 129.374 328.62 122.956H352.789C350.828 135.061 344.306 145.956 334.562 153.401C324.872 160.786 312.408 164.478 297.168 164.478Z" fill="white"/>
<path d="M407.469 164.478C399.042 164.656 390.717 162.606 383.335 158.537C376.423 154.604 370.775 148.782 367.055 141.753C363.018 134.095 360.997 125.535 361.18 116.88C360.988 108 362.97 99.2075 366.954 91.2687C370.641 84.1033 376.286 78.1319 383.234 74.0488C390.668 69.8074 399.113 67.6613 407.671 67.839C415.909 67.6611 424.037 69.7513 431.167 73.881C437.725 77.7582 443.099 83.3525 446.709 90.0603C450.432 97.0736 452.325 104.913 452.214 112.852V117.082C452.202 118.61 452.079 120.136 451.845 121.647H376.923V107.549H430.16C430.208 104.591 429.635 101.656 428.478 98.9325C427.322 96.2094 425.608 93.759 423.447 91.7387C419.081 87.8432 413.384 85.7759 407.536 85.965C403.197 85.9222 398.92 86.9973 395.117 89.0867C391.277 91.2029 388.156 94.4171 386.154 98.3176C383.766 103.116 382.612 108.435 382.798 113.792V119.096C382.701 124.229 383.853 129.309 386.154 133.899C388.087 137.844 391.148 141.127 394.949 143.331C398.745 145.555 403.07 146.715 407.469 146.688C411.949 146.854 416.377 145.685 420.191 143.331C423.472 141.213 426.043 138.162 427.576 134.57H449.898C448.213 140.248 445.354 145.509 441.506 150.011C437.534 154.63 432.595 158.32 427.039 160.819C420.859 163.448 414.181 164.697 407.469 164.478Z" fill="white"/>
<path d="M463.459 162.263V70.088H482.861L484.505 85.4281C487.244 80.1088 491.434 75.6744 496.589 72.6391C502.245 69.3432 508.709 67.6924 515.253 67.8727C521.892 67.6695 528.461 69.2826 534.252 72.5383C539.601 75.7406 543.85 80.4935 546.436 86.1665C549.507 93.1962 550.975 100.821 550.733 108.489V162.196H528.78V110.368C529.192 104.031 527.375 97.7503 523.644 92.6115C521.737 90.492 519.367 88.841 516.718 87.7872C514.069 86.7335 511.213 86.3053 508.371 86.5359C504.221 86.4711 500.133 87.5512 496.556 89.6576C493.008 91.8202 490.155 94.9536 488.332 98.6871C486.208 103.171 485.173 108.094 485.311 113.054V162.263H463.459Z" fill="white"/>
<path d="M604.876 162.263C599.342 162.389 593.838 161.396 588.697 159.342C584.134 157.412 580.359 153.992 577.989 149.642C575.176 143.969 573.859 137.672 574.162 131.348V88.5497H558.42V70.0879H574.162L576.714 45.7519H596.115V70.0879H621.156V88.5497H596.115V131.348C595.921 133.075 596.089 134.824 596.609 136.483C597.129 138.142 597.99 139.674 599.136 140.981C602.082 143.01 605.643 143.947 609.206 143.633H620.552V162.263H604.876Z" fill="white"/>
<path d="M632.569 162.263V70.0879H652.139L654.153 87.2741C656.246 83.3587 659.032 79.8557 662.376 76.9355C665.789 73.9835 669.73 71.7054 673.991 70.2221C678.731 68.5923 683.714 67.7864 688.726 67.8389V91.0672H681.04C677.514 91.0544 674.002 91.5173 670.6 92.4434C667.482 93.2693 664.582 94.7704 662.108 96.8406C659.593 99.0737 657.677 101.901 656.536 105.065C655.081 109.271 654.399 113.706 654.522 118.156V162.229L632.569 162.263Z" fill="white"/>
<path d="M737.164 164.478C728.855 164.604 720.666 162.482 713.465 158.335C706.496 154.316 700.797 148.419 697.018 141.317C693.058 133.516 690.994 124.89 690.994 116.142C690.994 107.393 693.058 98.7676 697.018 90.9664C700.864 83.869 706.605 77.978 713.6 73.9482C720.842 69.9184 728.993 67.8033 737.281 67.8033C745.569 67.8033 753.72 69.9184 760.963 73.9482C767.904 77.9091 773.61 83.7193 777.444 90.7317C781.545 98.5011 783.591 107.191 783.385 115.974C783.592 124.769 781.51 133.467 777.343 141.216C773.464 148.218 767.741 154.022 760.795 158C753.645 162.247 745.48 164.485 737.164 164.478ZM737.164 145.613C741.395 145.651 745.551 144.487 749.147 142.257C752.925 139.862 755.941 136.438 757.841 132.388C759.989 127.247 761.096 121.73 761.096 116.158C761.096 110.586 759.989 105.07 757.841 99.929C756.478 97.0375 754.524 94.4644 752.103 92.3764C749.683 90.2884 746.851 88.7321 743.791 87.8081C740.732 86.8841 737.511 86.6132 734.34 87.0127C731.169 87.4123 728.117 88.4732 725.382 90.1273C721.576 92.4894 718.525 95.8903 716.587 99.929C714.218 104.985 713.068 110.527 713.23 116.108C713.077 121.721 714.226 127.294 716.587 132.388C718.487 136.438 721.503 139.862 725.281 142.257C728.842 144.483 732.964 145.647 737.164 145.613Z" fill="white"/>
<path d="M816.549 162.263L782.546 70.0879H805.573L829.909 141.418L854.111 70.0879H876.802L842.765 162.263H816.549Z" fill="white"/>
<path d="M908.959 164.478C902.453 164.713 895.985 163.389 890.094 160.618C885.45 158.382 881.572 154.819 878.95 150.38C876.516 146.156 875.253 141.359 875.291 136.483C875.147 131.077 876.722 125.765 879.79 121.311C883.15 116.68 887.829 113.17 893.216 111.241C900.112 108.663 907.441 107.443 914.8 107.649H938.028C938.155 103.506 937.47 99.3788 936.014 95.4982C934.827 92.4553 932.636 89.909 929.804 88.2812C926.47 86.5608 922.744 85.7395 918.996 85.8981C914.496 85.7407 910.049 86.9079 906.207 89.2548C904.412 90.3876 902.882 91.8948 901.723 93.6733C900.565 95.4519 899.804 97.46 899.493 99.5599H877.91C878.538 93.4487 880.864 87.6351 884.623 82.7764C888.448 77.9328 893.452 74.1531 899.158 71.7999C905.428 69.1353 912.183 67.7981 918.996 67.8727C926.627 67.6628 934.205 69.2012 941.15 72.3705C946.988 75.1403 951.863 79.5945 955.147 85.1595C958.532 91.3194 960.201 98.2747 959.981 105.3V162.363H941.318L939.136 147.56C937.885 149.995 936.316 152.253 934.47 154.274C930.473 158.606 925.328 161.714 919.633 163.236C916.147 164.125 912.557 164.543 908.959 164.478ZM913.893 147.091C917.14 147.149 920.359 146.496 923.326 145.177C926.07 143.881 928.498 142.002 930.442 139.672C932.466 137.325 934.047 134.629 935.108 131.717C936.234 128.711 936.979 125.576 937.323 122.385V122.016H917.183C913.577 121.916 909.982 122.473 906.576 123.661C904.137 124.484 902.022 126.059 900.534 128.159C899.262 130.162 898.619 132.5 898.688 134.872C898.591 137.193 899.23 139.485 900.514 141.42C901.798 143.355 903.661 144.835 905.837 145.647C908.399 146.663 911.139 147.154 913.893 147.091Z" fill="white"/>
<path d="M155.919 75.8231C162.83 75.8188 169.588 73.7887 175.357 69.984C181.126 66.1792 185.653 60.7667 188.378 54.416C191.104 48.0654 191.907 41.055 190.69 34.2523C189.473 27.4496 186.289 21.1529 181.531 16.1411L180.255 14.8655C173.568 8.524 164.669 5.04243 155.454 5.16154C146.238 5.28065 137.433 8.99105 130.912 15.5033L105.938 40.4771L130.912 65.4845C134.197 68.7658 138.096 71.3678 142.387 73.1417C146.678 74.9156 151.276 75.8268 155.919 75.8231Z" fill="white"/>
<path d="M105.971 40.4769L71.6325 6.17159C68.1965 2.69062 63.6409 0.535743 58.7704 0.0873835C53.8998 -0.360976 49.0277 0.925884 45.0139 3.72107C33.0008 12.1718 22.875 23.0268 15.2786 35.5975C7.6822 48.1683 2.78105 62.1806 0.886025 76.7455C-1.009 91.3105 0.143366 106.11 4.27017 120.206C8.39698 134.302 15.4081 147.387 24.8588 158.63C34.3096 169.874 45.9936 179.03 59.1701 185.519C72.3465 192.009 86.7278 195.689 101.402 196.327C116.076 196.964 130.722 194.546 144.412 189.224C158.101 183.903 170.536 175.794 180.926 165.413L142.895 127.382C139.928 124.433 136.147 122.439 132.037 121.656C127.928 120.872 123.679 121.335 119.835 122.984C112.284 126.207 103.847 126.701 95.9716 124.381C88.0965 122.061 81.2744 117.072 76.6766 110.271C72.0787 103.47 69.9919 95.2797 70.7743 87.1073C71.5566 78.935 75.1593 71.2899 80.964 65.4843L105.971 40.4769Z" fill="white"/>
</svg>
