<svg width="286" height="59" viewBox="0 0 286 59" fill="none" xmlns="http://www.w3.org/2000/svg">
<path d="M46.46 22.59C48.5188 22.5887 50.532 21.984 52.2507 20.8505C53.9693 19.717 55.318 18.1045 56.1299 16.2126C56.9418 14.3207 57.1813 12.2322 56.8187 10.2056C56.4562 8.17897 55.5075 6.3031 54.09 4.81001L53.71 4.43C51.7176 2.54079 49.0667 1.50359 46.3214 1.53907C43.576 1.57456 40.9528 2.67993 39.0099 4.62001L31.5699 12.06L39.0099 19.51C39.9886 20.4876 41.1502 21.2627 42.4285 21.7912C43.7068 22.3197 45.0767 22.5911 46.46 22.59Z" fill="#FFB901"/>
<path d="M31.5799 12.06L21.35 1.83998C20.3263 0.802958 18.9692 0.160993 17.5182 0.0274212C16.0672 -0.106151 14.6157 0.277221 13.42 1.10994C9.84111 3.62751 6.8245 6.86136 4.56144 10.6063C2.29839 14.3513 0.838275 18.5257 0.273723 22.8648C-0.290829 27.2039 0.052476 31.6129 1.2819 35.8123C2.51133 40.0117 4.60001 43.9098 7.41551 47.2593C10.231 50.6088 13.7118 53.3367 17.6372 55.2699C21.5627 57.2031 25.847 58.2995 30.2185 58.4895C34.5901 58.6795 38.9534 57.959 43.0317 56.3736C47.1101 54.7882 50.8145 52.3726 53.91 49.28L42.5799 37.95C41.6959 37.0716 40.5695 36.4775 39.3453 36.2441C38.1212 36.0107 36.8552 36.1485 35.7099 36.64C33.4605 37.6001 30.947 37.7472 28.6009 37.056C26.2548 36.3649 24.2224 34.8787 22.8526 32.8525C21.4829 30.8263 20.8612 28.3864 21.0943 25.9517C21.3273 23.5171 22.4006 21.2395 24.1299 19.51L31.5799 12.06Z" fill="url(#paint0_linear_35_20)"/>
<path d="M88.54 44.07C85.1108 44.1584 81.7235 43.3004 78.7499 41.59C76.0158 39.9463 73.8196 37.5416 72.4299 34.67C70.9731 31.4298 70.2199 27.9176 70.2199 24.365C70.2199 20.8124 70.9731 17.3001 72.4299 14.06C73.8246 11.1865 76.0191 8.77667 78.7499 7.11997C81.715 5.3859 85.1063 4.51642 88.54 4.60996C93.08 4.60996 96.7866 5.72666 99.66 7.96C102.6 10.3168 104.546 13.694 105.11 17.42H97.91C97.4955 15.4193 96.3956 13.6261 94.8 12.35C92.9678 11.026 90.7373 10.3695 88.48 10.49C86.301 10.4306 84.1525 11.0112 82.3 12.16C80.515 13.3177 79.1209 14.9871 78.3 16.95C77.3201 19.3051 76.8465 21.84 76.91 24.39C76.8424 26.9241 77.3163 29.4436 78.3 31.78C79.1335 33.7219 80.5259 35.3718 82.3 36.52C84.1535 37.6653 86.302 38.2423 88.48 38.18C90.7151 38.2981 92.9294 37.699 94.8 36.47C96.3765 35.3057 97.4805 33.6122 97.91 31.7H105.11C104.526 35.3063 102.583 38.5519 99.6799 40.77C96.7933 42.97 93.08 44.07 88.54 44.07Z" fill="#58595B"/>
<path d="M121.4 44.07C118.889 44.1229 116.409 43.5123 114.21 42.3C112.151 41.1283 110.468 39.3938 109.36 37.3C108.157 35.0184 107.555 32.4685 107.61 29.89C107.553 27.2445 108.143 24.6251 109.33 22.26C110.428 20.1254 112.11 18.3464 114.18 17.13C116.395 15.8664 118.911 15.2271 121.46 15.28C123.914 15.227 126.336 15.8497 128.46 17.08C130.413 18.2351 132.014 19.9017 133.09 21.9C134.199 23.9894 134.763 26.3247 134.73 28.69V29.95C134.727 30.4054 134.69 30.86 134.62 31.31H112.3V27.11H128.16C128.174 26.2288 128.003 25.3544 127.659 24.5431C127.314 23.7319 126.804 23.0019 126.16 22.4C124.859 21.2395 123.162 20.6236 121.42 20.68C120.127 20.6672 118.853 20.9875 117.72 21.61C116.576 22.2404 115.646 23.1979 115.05 24.36C114.338 25.7896 113.995 27.3741 114.05 28.97V30.55C114.021 32.0793 114.364 33.5927 115.05 34.96C115.626 36.1354 116.538 37.1134 117.67 37.77C118.801 38.4326 120.089 38.778 121.4 38.77C122.734 38.8195 124.054 38.4715 125.19 37.77C126.167 37.139 126.933 36.23 127.39 35.16H134.04C133.538 36.8516 132.686 38.4188 131.54 39.76C130.357 41.1361 128.885 42.2353 127.23 42.98C125.389 43.7632 123.399 44.1351 121.4 44.07Z" fill="#58595B"/>
<path d="M138.08 43.41V15.95H143.86L144.35 20.52C145.166 18.9353 146.414 17.6143 147.95 16.71C149.635 15.7281 151.561 15.2363 153.51 15.29C155.488 15.2295 157.445 15.7101 159.17 16.68C160.764 17.634 162.03 19.0499 162.8 20.74C163.715 22.8342 164.152 25.1058 164.08 27.39V43.39H157.54V27.95C157.663 26.0622 157.121 24.191 156.01 22.66C155.442 22.0286 154.736 21.5368 153.947 21.2228C153.157 20.9089 152.307 20.7814 151.46 20.85C150.223 20.8308 149.006 21.1525 147.94 21.78C146.883 22.4243 146.033 23.3578 145.49 24.47C144.857 25.806 144.549 27.2724 144.59 28.75V43.41H138.08Z" fill="#58595B"/>
<path d="M180.21 43.41C178.561 43.4477 176.922 43.1518 175.39 42.54C174.031 41.9649 172.906 40.9462 172.2 39.65C171.362 37.9601 170.969 36.0841 171.06 34.2V21.45H166.37V15.95H171.06L171.82 8.7H177.6V15.95H185.06V21.45H177.6V34.2C177.542 34.7147 177.592 35.2358 177.747 35.73C177.902 36.2242 178.158 36.6806 178.5 37.07C179.378 37.6743 180.438 37.9536 181.5 37.86H184.88V43.41H180.21Z" fill="#58595B"/>
<path d="M188.46 43.41V15.95H194.29L194.89 21.07C195.514 19.9035 196.344 18.8599 197.34 17.99C198.356 17.1105 199.531 16.4319 200.8 15.99C202.212 15.5044 203.697 15.2644 205.19 15.28V22.2H202.9C201.85 22.1962 200.803 22.3341 199.79 22.61C198.861 22.856 197.997 23.3032 197.26 23.92C196.511 24.5852 195.94 25.4275 195.6 26.37C195.167 27.6232 194.963 28.9445 195 30.27V43.4L188.46 43.41Z" fill="#58595B"/>
<path d="M219.62 44.07C217.145 44.1076 214.705 43.4753 212.56 42.24C210.484 41.0425 208.786 39.2857 207.66 37.17C206.48 34.8459 205.865 32.2763 205.865 29.67C205.865 27.0636 206.48 24.494 207.66 22.17C208.806 20.0556 210.516 18.3005 212.6 17.1C214.758 15.8995 217.186 15.2694 219.655 15.2694C222.124 15.2694 224.552 15.8995 226.71 17.1C228.778 18.28 230.478 20.011 231.62 22.1C232.842 24.4146 233.451 27.0034 233.39 29.62C233.451 32.2402 232.831 34.8316 231.59 37.14C230.434 39.2258 228.729 40.955 226.66 42.14C224.53 43.4054 222.098 44.0722 219.62 44.07ZM219.62 38.45C220.881 38.4613 222.119 38.1145 223.19 37.45C224.316 36.7365 225.214 35.7166 225.78 34.51C226.42 32.9784 226.75 31.3349 226.75 29.675C226.75 28.015 226.42 26.3716 225.78 24.84C225.374 23.9786 224.792 23.212 224.071 22.59C223.35 21.968 222.506 21.5043 221.594 21.229C220.683 20.9538 219.724 20.8731 218.779 20.9921C217.834 21.1111 216.925 21.4272 216.11 21.92C214.976 22.6237 214.067 23.6368 213.49 24.84C212.784 26.3463 212.442 27.9972 212.49 29.66C212.444 31.3322 212.787 32.9923 213.49 34.51C214.056 35.7166 214.954 36.7365 216.08 37.45C217.141 38.1131 218.369 38.46 219.62 38.45Z" fill="#58595B"/>
<path d="M243.27 43.41L233.14 15.95H240L247.25 37.2L254.46 15.95H261.22L251.08 43.41H243.27Z" fill="#58595B"/>
<path d="M270.8 44.07C268.862 44.14 266.935 43.7457 265.18 42.92C263.796 42.2538 262.641 41.1924 261.86 39.87C261.135 38.6116 260.758 37.1825 260.77 35.73C260.727 34.1195 261.196 32.5369 262.11 31.21C263.111 29.8303 264.505 28.7847 266.11 28.21C268.164 27.4419 270.348 27.0786 272.54 27.14H279.46C279.498 25.9058 279.294 24.6761 278.86 23.52C278.506 22.6135 277.854 21.8549 277.01 21.37C276.017 20.8575 274.907 20.6128 273.79 20.66C272.449 20.6132 271.125 20.9609 269.98 21.66C269.445 21.9975 268.99 22.4465 268.644 22.9764C268.299 23.5063 268.073 24.1045 267.98 24.7301H261.55C261.737 22.9095 262.43 21.1775 263.55 19.7301C264.689 18.2871 266.18 17.1611 267.88 16.46C269.748 15.6662 271.76 15.2678 273.79 15.29C276.063 15.2275 278.321 15.6858 280.39 16.63C282.129 17.4552 283.582 18.7821 284.56 20.44C285.568 22.2751 286.065 24.3472 286 26.44V43.44H280.44L279.79 39.03C279.417 39.7554 278.95 40.4279 278.4 41.03C277.209 42.3207 275.676 43.2466 273.98 43.7C272.941 43.9648 271.872 44.0893 270.8 44.07ZM272.27 38.89C273.237 38.9076 274.196 38.713 275.08 38.32C275.897 37.9339 276.621 37.3742 277.2 36.68C277.803 35.9806 278.274 35.1776 278.59 34.31C278.926 33.4147 279.147 32.4807 279.25 31.53V31.42H273.25C272.176 31.3901 271.105 31.5562 270.09 31.91C269.363 32.1554 268.733 32.6244 268.29 33.25C267.911 33.8468 267.719 34.5434 267.74 35.25C267.711 35.9413 267.901 36.6241 268.284 37.2007C268.667 37.7772 269.222 38.218 269.87 38.46C270.633 38.7626 271.449 38.9088 272.27 38.89Z" fill="#58595B"/>
<defs>
<linearGradient id="paint0_linear_35_20" x1="142.955" y1="0.919993" x2="142.955" y2="57.76" gradientUnits="userSpaceOnUse">
<stop stop-color="#02ADF0"/>
<stop offset="0.99" stop-color="#0092E6"/>
</linearGradient>
</defs>
</svg>
