<svg width="131" height="24" viewBox="0 0 131 24" fill="none" xmlns="http://www.w3.org/2000/svg">
<path d="M25.0392 16.5888C24.2124 18.3005 23.0222 19.8112 21.5515 21.0157C19.3133 22.84 16.5412 23.8846 13.6557 23.991C10.7701 24.0974 7.92858 23.2598 5.56211 21.6053C3.20505 19.9764 1.45783 17.6087 0.596417 14.8761C-0.264997 12.1436 -0.191507 9.20197 0.805263 6.51585C1.46151 4.73305 2.50605 3.11849 3.86324 1.78914C4.29463 1.358 4.75543 0.957317 5.24231 0.589983C5.81615 0.164401 6.52313 -0.0422685 7.23585 0.00719911C7.94858 0.0566667 8.6202 0.359023 9.12974 0.859798L13.1271 4.857L10.0491 7.85491C9.24361 8.66071 8.79108 9.75342 8.79108 10.8928C8.79108 12.0321 9.24361 13.1249 10.0491 13.9307C10.8719 14.7309 11.9743 15.1787 13.1221 15.1787C14.2699 15.1787 15.3724 14.7309 16.1951 13.9307L16.255 13.8807L17.2544 12.8814C17.8148 12.3321 18.5682 12.0244 19.353 12.0244C20.1377 12.0244 20.8912 12.3321 21.4516 12.8814L25.0392 16.5888Z" fill="#128AEB"/>
<path d="M23.7201 4.80703C23.7191 5.66556 23.4616 6.50422 22.9806 7.21535C22.4877 7.93471 21.7919 8.49124 20.9819 8.81422C20.1776 9.14072 19.2961 9.22748 18.4436 9.06405C17.5963 8.89768 16.8173 8.48387 16.2051 7.87489L13.1071 4.80703L16.2051 1.74917C17.0147 0.944673 18.1055 0.486538 19.2469 0.47162C20.3882 0.456701 21.4906 0.886166 22.321 1.66922L22.4809 1.82911C23.2677 2.6214 23.7126 3.6905 23.7201 4.80703Z" fill="#FFB901"/>
<path fill-rule="evenodd" clip-rule="evenodd" d="M54.6996 7.03547C55.6542 7.02279 56.6018 7.19941 57.4878 7.55511C58.2553 7.87731 58.9491 8.35282 59.5264 8.95251C60.1038 9.5522 60.5527 10.2634 60.8455 11.0427C61.1521 11.8294 61.308 12.6667 61.3052 13.511C61.3052 13.7175 61.3052 13.9373 61.3052 14.1705C61.2888 14.3893 61.2555 14.6064 61.2053 14.82H50.8322C50.852 15.3591 50.9884 15.8875 51.2319 16.369C51.5704 17.0212 52.0821 17.5675 52.7109 17.9478C53.3825 18.3327 54.1455 18.5295 54.9194 18.5174C55.6283 18.5395 56.3299 18.3701 56.9507 18.0272C57.5715 17.6843 58.0884 17.1805 58.4471 16.5688L60.8055 17.678C60.5088 18.3368 60.0684 18.9207 59.5164 19.3868C58.9282 19.8992 58.2507 20.2989 57.5177 20.566C56.6854 20.8532 55.8099 20.9951 54.9294 20.9857C53.6419 21.0102 52.3704 20.6966 51.2419 20.0764C50.2064 19.4724 49.3508 18.6031 48.7635 17.5581C48.1583 16.4639 47.8484 15.231 47.8641 13.9806C47.8395 12.7261 48.15 11.4877 48.7635 10.3931C49.3716 9.3621 50.2402 8.50912 51.2821 7.91978C52.324 7.33045 53.5026 7.02548 54.6996 7.03547ZM54.6996 9.38383C53.9929 9.38094 53.2999 9.57843 52.7009 9.95343C52.091 10.3268 51.6098 10.8778 51.3218 11.5323C51.157 11.8659 51.0457 12.2234 50.9921 12.5916H58.2972C58.2817 12.2012 58.19 11.8176 58.0274 11.4624C57.7706 10.8372 57.3229 10.3091 56.7482 9.95343C56.1407 9.55617 55.425 9.35717 54.6996 9.38383Z" fill="#58595B"/>
<path fill-rule="evenodd" clip-rule="evenodd" d="M99.2601 7.03547C100.542 7.0157 101.807 7.33271 102.928 7.95482C104.006 8.54018 104.905 9.40688 105.53 10.4627C106.155 11.5185 106.481 12.7239 106.475 13.9506C106.489 15.2233 106.143 16.474 105.476 17.5581C104.836 18.5985 103.937 19.4557 102.868 20.0464C101.743 20.6372 100.491 20.9459 99.2201 20.9459C97.9494 20.9459 96.6976 20.6372 95.5726 20.0464C94.4994 19.4563 93.6 18.5948 92.9643 17.5481C92.2989 16.4744 91.9523 15.2337 91.965 13.9706C91.9484 12.707 92.2953 11.4653 92.9643 10.3931C93.597 9.35168 94.4978 8.49925 95.5726 7.92484C96.703 7.31151 97.9744 7.00489 99.2601 7.03547ZM99.2601 9.63365C98.4989 9.62287 97.7492 9.81979 97.0916 10.2032C96.4489 10.5878 95.9236 11.1407 95.5726 11.8021C95.2128 12.4963 95.0308 13.2688 95.0429 14.0506C95.032 14.8386 95.2138 15.6173 95.5726 16.319C95.9357 16.9754 96.4709 17.5204 97.1207 17.8954C97.7704 18.2705 98.51 18.4613 99.2601 18.4475C100.025 18.4622 100.779 18.265 101.439 17.8779C102.067 17.502 102.581 16.9634 102.928 16.319C103.305 15.6232 103.498 14.8421 103.487 14.0506C103.499 13.2652 103.307 12.4902 102.928 11.8021C102.582 11.1596 102.067 10.624 101.439 10.2532C100.784 9.84856 100.03 9.63405 99.2601 9.63365Z" fill="#58595B"/>
<path fill-rule="evenodd" clip-rule="evenodd" d="M125.393 7.03547C126.388 7.01613 127.375 7.22106 128.281 7.63506C129.095 7.97515 129.791 8.5489 130.28 9.2839C130.765 9.99542 131.017 10.8409 130.999 11.7022V20.6959H128.231V19.137C127.59 19.8509 126.768 20.379 125.853 20.6659C125.169 20.8905 124.453 20.9986 123.734 20.9857C122.881 21.0057 122.033 20.8456 121.246 20.5161C120.593 20.2233 120.028 19.7652 119.607 19.187C119.214 18.5951 119.008 17.8987 119.017 17.1884C119.003 16.4909 119.172 15.8018 119.507 15.1898C119.888 14.5739 120.426 14.0704 121.066 13.7308C121.89 13.2997 122.782 13.0156 123.704 12.8914L128.111 12.1919V11.6822C128.115 11.3745 128.047 11.0701 127.913 10.7927C127.78 10.5154 127.584 10.2726 127.342 10.0833C126.776 9.63277 126.066 9.40208 125.343 9.43381C124.631 9.42308 123.933 9.63247 123.344 10.0334C122.79 10.3938 122.352 10.9077 122.085 11.5124L119.687 10.3532C119.947 9.67895 120.377 9.08346 120.936 8.62437C121.522 8.10674 122.2 7.7034 122.934 7.4352C123.725 7.16394 124.557 7.02877 125.393 7.03547ZM124.234 15.0299C123.612 15.0972 123.024 15.3476 122.545 15.7494C122.371 15.9131 122.234 16.1117 122.143 16.3322C122.052 16.5527 122.008 16.79 122.015 17.0285C122.008 17.2698 122.058 17.5093 122.161 17.7279C122.263 17.9465 122.415 18.1382 122.605 18.2876C123.056 18.6174 123.606 18.7832 124.164 18.7573C124.878 18.7758 125.584 18.607 126.212 18.2676C126.786 17.966 127.264 17.511 127.594 16.9535C127.924 16.3959 128.093 15.7576 128.081 15.1098V14.3903L124.234 15.0299Z" fill="#58595B"/>
<path d="M80.3126 7.33527H83.4606V9.85351H80.3126V16.1991C80.2988 16.6077 80.3774 17.0142 80.5425 17.3882C80.7022 17.7084 80.9618 17.968 81.282 18.1277C81.7023 18.3035 82.1559 18.3854 82.6111 18.3676C82.7642 18.3769 82.9177 18.3769 83.0708 18.3676L83.5605 18.3176V20.7159L82.771 20.8058C82.5148 20.8232 82.2577 20.8232 82.0015 20.8058C81.3883 20.8445 80.7736 20.76 80.1935 20.5575C79.6134 20.355 79.0797 20.0385 78.6238 19.6267C78.2033 19.1835 77.8789 18.6584 77.6708 18.084C77.4627 17.5097 77.3755 16.8986 77.4146 16.289V9.82353H74.9862V7.30529H75.3659C75.6373 7.3323 75.9114 7.29957 76.1688 7.20941C76.4262 7.11924 76.6608 6.97382 76.856 6.78336C77.0512 6.5929 77.2024 6.36201 77.2989 6.10691C77.3954 5.8518 77.4349 5.57867 77.4146 5.30668V4.30738H80.3126V7.33527Z" fill="#58595B"/>
<path d="M69.23 7.03548C70.1733 7.0177 71.1055 7.2413 71.9382 7.68503C72.7063 8.09218 73.3463 8.70448 73.787 9.45379C74.2368 10.2519 74.4646 11.156 74.4465 12.072V20.6959H71.5784V12.8015C71.6006 12.2119 71.4698 11.6266 71.1987 11.1026C70.953 10.6352 70.5691 10.2548 70.0994 10.0134C69.6128 9.74706 69.065 9.6127 68.5105 9.62368C67.9498 9.61512 67.3961 9.74923 66.9015 10.0134C66.4418 10.2616 66.0662 10.6407 65.8222 11.1026C65.56 11.6298 65.4297 12.2128 65.4425 12.8015V20.6859H62.5444V7.33527H65.3126V8.95414C65.6371 8.43442 66.0873 8.00482 66.6217 7.70501C67.4148 7.25065 68.3161 7.01931 69.23 7.03548Z" fill="#58595B"/>
<path d="M92.1448 9.70361H90.9356C90.4998 9.67233 90.0625 9.73668 89.6542 9.89214C89.2459 10.0476 88.8765 10.2904 88.5718 10.6036C88.2672 10.9168 88.0347 11.2927 87.8906 11.7052C87.7466 12.1176 87.6944 12.5566 87.7377 12.9913V20.6959H84.8497V7.33527H87.6078V9.04408C87.881 8.50228 88.3088 8.05366 88.837 7.75497C89.5885 7.34077 90.4378 7.13708 91.2954 7.16539H92.1448V9.70361Z" fill="#58595B"/>
<path d="M112.851 16.7187L116.449 7.33527H119.657L114.2 20.6959H111.562L106.146 7.33527H109.293L112.851 16.7187Z" fill="#58595B"/>
<path d="M44.4664 16.6587C43.5017 17.3999 42.3489 17.8563 41.1383 17.9761C39.9277 18.096 38.7078 17.8745 37.6165 17.3368C36.5253 16.7992 35.6064 15.9668 34.9638 14.9339C34.3213 13.901 33.9807 12.7088 33.9807 11.4924C33.9807 10.2759 34.3213 9.08373 34.9638 8.05082C35.6064 7.01792 36.5253 6.18552 37.6165 5.64786C38.7078 5.1102 39.9277 4.88877 41.1383 5.00861C42.3489 5.12845 43.5017 5.58479 44.4664 6.32597L45.6456 7.23532L47.4644 4.87699L46.2852 3.96762C44.8799 2.88671 43.2 2.22087 41.4358 2.04553C39.6715 1.87019 37.8935 2.19236 36.3029 2.97553C34.7124 3.7587 33.3729 4.97159 32.4362 6.47682C31.4996 7.98206 31.0031 9.7195 31.0031 11.4924C31.0031 13.2652 31.4996 15.0026 32.4362 16.5079C33.3729 18.0131 34.7124 19.226 36.3029 20.0092C37.8935 20.7924 39.6715 21.1145 41.4358 20.9392C43.2 20.7638 44.8799 20.098 46.2852 19.0171L47.4644 18.1077L45.6456 15.7993L44.4664 16.7087V16.6587Z" fill="#58595B"/>
</svg>
