<svg width="24" height="24" viewBox="0 0 24 24" fill="none" xmlns="http://www.w3.org/2000/svg">
<path d="M15.54 11.29L9.88 5.63998C9.78704 5.54625 9.67644 5.47185 9.55458 5.42108C9.43272 5.37032 9.30201 5.34418 9.17 5.34418C9.03799 5.34418 8.90728 5.37032 8.78542 5.42108C8.66356 5.47185 8.55296 5.54625 8.46 5.63998C8.27375 5.82734 8.16921 6.08079 8.16921 6.34498C8.16921 6.60916 8.27375 6.86261 8.46 7.04998L13.41 12.05L8.46 17C8.27375 17.1873 8.16921 17.4408 8.16921 17.705C8.16921 17.9692 8.27375 18.2226 8.46 18.41C8.55262 18.5045 8.66306 18.5796 8.78494 18.6311C8.90681 18.6826 9.03769 18.7094 9.17 18.71C9.30231 18.7094 9.43319 18.6826 9.55507 18.6311C9.67694 18.5796 9.78739 18.5045 9.88 18.41L15.54 12.76C15.6415 12.6663 15.7225 12.5527 15.7779 12.4262C15.8333 12.2997 15.8619 12.1631 15.8619 12.025C15.8619 11.8869 15.8333 11.7503 15.7779 11.6238C15.7225 11.4973 15.6415 11.3836 15.54 11.29V11.29Z" fill="#9A9895"/>
</svg>
