<svg xmlns="http://www.w3.org/2000/svg" version="1.1" xmlns:xlink="http://www.w3.org/1999/xlink" width="1000" height="1000"><metadata><rdf:RDF xmlns:rdf="http://www.w3.org/1999/02/22-rdf-syntax-ns#" xmlns:dc="http://purl.org/dc/elements/1.1/"><rdf:Description><dc:creator>RealFaviconGenerator</dc:creator><dc:source>https://realfavicongenerator.net</dc:source></rdf:Description></rdf:RDF></metadata><g clip-path="url(#SvgjsClipPath1044)"><rect width="1000" height="1000" fill="#ffffff"></rect><g transform="matrix(28,0,0,28,150,164)"><svg xmlns="http://www.w3.org/2000/svg" width="25" height="24" viewBox="0 0 25 24" fill="none"><g clip-path="url(#clip0_314_71)">
<path d="M24.7906 16.5955C23.9732 18.307 22.7913 19.8195 21.3275 21.0272C19.8637 22.2348 18.1534 23.1085 16.3162 23.587C14.479 24.0656 12.5593 24.1375 10.6914 23.7976C8.82354 23.4578 7.05253 22.7145 5.50231 21.6197C3.95208 20.5249 2.66008 19.105 1.71667 17.4594C0.773266 15.8139 0.201244 13.9823 0.0406212 12.0928C-0.120002 10.2034 0.134652 8.30171 0.786769 6.52083C1.43889 4.73994 2.47272 3.12286 3.81595 1.7827C4.24577 1.35413 4.70462 0.95562 5.18923 0.589987C5.75543 0.164467 6.45653 -0.0423757 7.16336 0.00756384C7.87018 0.0575034 8.53514 0.360861 9.03572 0.861752L13.0326 4.8504L9.98778 7.89137L9.96102 7.91747L9.93553 7.9442C9.13706 8.75549 8.68964 9.84757 8.68964 10.9852C8.68964 12.1228 9.13706 13.2148 9.93553 14.0261L9.96102 14.0529L9.98778 14.079C10.8004 14.8762 11.8939 15.3228 13.0329 15.3228C14.172 15.3228 15.2655 14.8762 16.078 14.079L16.1303 14.0261L17.097 13.0613C17.6484 12.5108 18.3961 12.2015 19.1758 12.2015C19.9554 12.2015 20.7031 12.5108 21.2545 13.0613L24.7906 16.5955Z" fill="#128AEB"></path>
<path d="M23.5166 4.8504C23.5165 5.70827 23.2616 6.54684 22.7843 7.26008C22.3071 7.97332 21.6288 8.52921 20.8352 8.85748C20.0416 9.18575 19.1684 9.27166 18.3259 9.10434C17.4835 8.93702 16.7096 8.524 16.1021 7.91747L13.0325 4.8504L16.1047 1.7827C16.9055 0.982903 17.9874 0.527117 19.1199 0.512494C20.2523 0.49787 21.3457 0.925566 22.1669 1.70442L22.2472 1.7827C22.274 1.80943 22.2995 1.83616 22.3256 1.8629C23.092 2.669 23.5185 3.73876 23.5166 4.8504Z" fill="#FFB901"></path>
</g><defs>
<clipPath id="clip0_314_71">
<rect width="24.7912" height="24" fill="white"></rect>
</clipPath>
<clipPath id="SvgjsClipPath1044"><rect width="1000" height="1000" x="0" y="0" rx="500" ry="500"></rect></clipPath></defs></svg></g></g></svg>