<svg width="214" height="59" viewBox="0 0 214 59" fill="none" xmlns="http://www.w3.org/2000/svg">
<g clip-path="url(#clip0_83_8)">
<path d="M46.4701 22.5901C48.5297 22.5907 50.5444 21.9874 52.2646 20.8546C53.9847 19.7219 55.335 18.1096 56.1481 16.2173C56.9612 14.3249 57.2016 12.2356 56.8393 10.2081C56.4771 8.18056 55.5282 6.30379 54.1101 4.81009L53.9201 4.62008L53.7201 4.43008C51.7295 2.5415 49.0802 1.50458 46.3365 1.54007C43.5928 1.57555 40.9712 2.68065 39.0301 4.62008L31.6101 12.0601L39.0601 19.5101C41.0261 21.4755 43.6902 22.5828 46.4701 22.5901Z" fill="#FFB901"/>
<path d="M31.6099 12.06L21.3899 1.83995C20.3636 0.803927 19.005 0.162858 17.5528 0.0293459C16.1007 -0.104166 14.6479 0.278446 13.4499 1.10997C11.9624 2.15894 10.5673 3.33323 9.27991 4.61998C3.35762 10.5436 0.0310448 18.5772 0.0319826 26.9535C0.0329204 35.3299 3.3613 43.3627 9.28491 49.285C15.2085 55.2072 23.2421 58.5338 31.6184 58.5329C39.9948 58.5319 48.0276 55.2036 53.9499 49.28L42.6099 37.95C41.7252 37.0728 40.5988 36.4795 39.3749 36.2461C38.151 36.0128 36.8854 36.1499 35.7399 36.64C34.4302 37.1949 33.0223 37.4806 31.5999 37.48C29.5128 37.4836 27.4717 36.867 25.7357 35.7083C23.9997 34.5496 22.6473 32.9012 21.85 30.9723C21.0527 29.0435 20.8467 26.9213 21.2579 24.875C21.6692 22.8288 22.6793 20.951 24.1599 19.48L31.6099 12.06Z" fill="url(#paint0_linear_83_8)"/>
<path d="M98.8399 12.12C95.8425 10.4025 92.4336 9.53472 88.9799 9.60998C85.5679 9.53966 82.2021 10.4079 79.2499 12.12C76.444 13.7767 74.1524 16.179 72.6299 19.06C71.0507 22.2657 70.2295 25.7914 70.2295 29.365C70.2295 32.9385 71.0507 36.4643 72.6299 39.67C74.1476 42.5492 76.4408 44.9462 79.2499 46.59C82.2103 48.2788 85.5723 49.1358 88.9799 49.07C92.4295 49.1429 95.8352 48.2862 98.8399 46.59C101.657 44.9623 103.947 42.5606 105.44 39.67C106.98 36.4531 107.78 32.9317 107.78 29.365C107.78 25.7983 106.98 22.2769 105.44 19.06C103.943 16.1675 101.654 13.7605 98.8399 12.12ZM99.6099 36.75C98.7158 38.7226 97.2534 40.3835 95.4099 41.52C93.4615 42.6086 91.2668 43.1802 89.0349 43.1802C86.803 43.1802 84.6083 42.6086 82.6599 41.52C80.8122 40.3797 79.3411 38.7207 78.4299 36.75C77.4398 34.405 76.9297 31.8854 76.9297 29.34C76.9297 26.7945 77.4398 24.275 78.4299 21.93C79.3381 19.9573 80.8099 18.2975 82.6599 17.16C84.6061 16.0648 86.8017 15.4896 89.0349 15.4896C91.2681 15.4896 93.4636 16.0648 95.4099 17.16C97.2558 18.2937 98.719 19.9554 99.6099 21.93C101.57 26.6755 101.57 32.0044 99.6099 36.75Z" fill="#58595B"/>
<path d="M119.12 18C119.072 17.5467 119.117 17.0883 119.253 16.6531C119.388 16.2179 119.612 15.8152 119.91 15.47C120.652 14.9102 121.575 14.6464 122.5 14.73H124.79V9.18004H121.52C119.878 9.14032 118.244 9.43636 116.72 10.05C115.406 10.612 114.32 11.6024 113.64 12.86C112.866 14.4449 112.502 16.1982 112.58 17.9601V20.9601H108.61V26.47H112.61V48.47H119.15V26.47H125.36V20.9601H119.15L119.12 18Z" fill="#58595B"/>
<path d="M136.07 18C136.021 17.5444 136.069 17.0836 136.21 16.6476C136.351 16.2117 136.583 15.8104 136.89 15.47C137.644 14.9125 138.576 14.6494 139.51 14.73H141.41V9.18002H138.52C136.881 9.13969 135.25 9.43578 133.73 10.05C132.409 10.6137 131.314 11.6028 130.62 12.86C129.826 14.4387 129.451 16.1948 129.53 17.9601V20.9601H125.66V26.47H129.53V48.47H136.07V26.47H146.61V48.47H153.15V20.94H136.07V18Z" fill="#58595B"/>
<path d="M149.92 9.11998C148.821 9.07468 147.747 9.45426 146.92 10.18C146.537 10.5257 146.234 10.9509 146.032 11.4259C145.83 11.9008 145.734 12.4141 145.75 12.93C145.739 13.4451 145.838 13.9565 146.04 14.4306C146.242 14.9047 146.542 15.3305 146.92 15.68C147.321 16.0561 147.793 16.3487 148.308 16.541C148.823 16.7333 149.371 16.8213 149.92 16.8C150.47 16.8258 151.019 16.7399 151.535 16.5474C152.051 16.3549 152.522 16.0598 152.92 15.68C153.294 15.3279 153.59 14.9011 153.788 14.4274C153.986 13.9536 154.082 13.4434 154.07 12.93C154.087 12.415 153.992 11.9027 153.791 11.428C153.591 10.9533 153.29 10.5275 152.91 10.18C152.09 9.45029 151.017 9.06993 149.92 9.11998Z" fill="#58595B"/>
<path d="M167.28 26.94C168.383 26.2638 169.656 25.9169 170.95 25.94C172.396 25.9033 173.816 26.3232 175.01 27.14C176.14 27.9166 176.948 29.0795 177.28 30.41H184.14C183.608 27.4839 182.017 24.8565 179.67 23.03C177.19 21.1778 174.153 20.2256 171.06 20.33C168.515 20.2858 166.004 20.9246 163.79 22.18C161.68 23.3799 159.948 25.1465 158.79 27.28C157.57 29.6062 156.961 32.2041 157.02 34.83C156.974 37.4004 157.583 39.9402 158.79 42.21C159.938 44.3433 161.673 46.1027 163.79 47.28C165.991 48.5206 168.483 49.1523 171.01 49.11C174.127 49.2165 177.185 48.2453 179.67 46.36C181.993 44.5335 183.58 41.9312 184.14 39.03H177.28C177.04 39.9312 176.603 40.768 176 41.48C175.408 42.1643 174.661 42.6959 173.82 43.03C172.906 43.389 171.931 43.5656 170.95 43.55C169.974 43.5582 169.008 43.3534 168.12 42.95C167.237 42.5412 166.448 41.9558 165.8 41.23C165.096 40.4321 164.568 39.4952 164.25 38.48C163.868 37.2638 163.682 35.9946 163.7 34.72C163.667 33.0843 164.009 31.4629 164.7 29.98C165.247 28.738 166.143 27.6818 167.28 26.94Z" fill="#58595B"/>
<path d="M212.32 26.91C211.244 24.9117 209.643 23.245 207.69 22.09C205.566 20.8597 203.144 20.237 200.69 20.29C198.141 20.237 195.625 20.8764 193.41 22.14C191.343 23.3594 189.662 25.1376 188.56 27.27C187.373 29.6351 186.783 32.2545 186.84 34.9C186.785 37.4784 187.387 40.0285 188.59 42.31C189.696 44.4059 191.379 46.141 193.44 47.31C195.639 48.5224 198.119 49.1329 200.63 49.08C202.619 49.1126 204.591 48.7134 206.41 47.91C208.065 47.1653 209.536 46.0661 210.72 44.69C211.866 43.3488 212.718 41.7816 213.22 40.09H206.57C206.117 41.1619 205.35 42.0718 204.37 42.7C203.233 43.4003 201.914 43.7483 200.58 43.7C199.269 43.7081 197.981 43.3626 196.85 42.7C195.718 42.0434 194.806 41.0654 194.23 39.89C193.674 38.7501 193.361 37.5072 193.31 36.24H213.88C213.95 35.79 213.987 35.3354 213.99 34.88V33.68C214.011 31.3189 213.436 28.9906 212.32 26.91ZM193.39 32.06C193.508 31.1014 193.792 30.1707 194.23 29.31C194.826 28.148 195.756 27.1904 196.9 26.56C198.033 25.9375 199.307 25.6173 200.6 25.63C202.345 25.5762 204.044 26.1915 205.35 27.35C205.992 27.953 206.502 28.6833 206.846 29.4943C207.191 30.3052 207.362 31.1791 207.35 32.06H193.39Z" fill="#58595B"/>
</g>
<defs>
<linearGradient id="paint0_linear_83_8" x1="26.9599" y1="0.919997" x2="26.9599" y2="57.76" gradientUnits="userSpaceOnUse">
<stop stop-color="#02ADF0"/>
<stop offset="0.99" stop-color="#0092E6"/>
</linearGradient>
<clipPath id="clip0_83_8">
<rect width="213.95" height="58.54" fill="white"/>
</clipPath>
</defs>
</svg>
