<svg xmlns="http://www.w3.org/2000/svg" viewBox="0 0 431.27 53.56"><defs><style>.cls-1{fill:none;}.cls-2{fill:#ec1c24;}.cls-3{fill:#128aeb;}.cls-4{fill:#ffb901;}.cls-5{fill:#58595b;}</style></defs><g id="Layer_2" data-name="Layer 2"><g id="Layer_1-2" data-name="Layer 1"><polygon class="cls-1" points="250.35 30.81 259.62 30.81 255 17.71 250.35 30.81"/><path class="cls-1" d="M221.54,32.49a2.63,2.63,0,0,0-1.33,1,2.68,2.68,0,0,0-.4,1.46,2.59,2.59,0,0,0,.4,1.44,2.53,2.53,0,0,0,1.17.92,4.63,4.63,0,0,0,1.8.32,4.83,4.83,0,0,0,2.06-.42A4.54,4.54,0,0,0,226.8,36a5.86,5.86,0,0,0,1-1.74,8.44,8.44,0,0,0,.48-2v-.08h-4.44A6.39,6.39,0,0,0,221.54,32.49Z"/><path class="cls-1" d="M303.31,24.66a6.18,6.18,0,0,0-3.33-.9,6,6,0,0,0-3.24.9,6.11,6.11,0,0,0-2.24,2.48,8.18,8.18,0,0,0-.8,3.71,8.28,8.28,0,0,0,.8,3.72,5.93,5.93,0,0,0,2.24,2.48,6.06,6.06,0,0,0,3.24.88,6.25,6.25,0,0,0,3.33-.88,5.82,5.82,0,0,0,2.22-2.48,8.41,8.41,0,0,0,.78-3.72,8.31,8.31,0,0,0-.78-3.71A6,6,0,0,0,303.31,24.66Z"/><path class="cls-1" d="M347.71,24.52a5.64,5.64,0,0,0-2.94-.8,5.64,5.64,0,0,0-5.14,3.18,8.5,8.5,0,0,0-.82,4,8.48,8.48,0,0,0,.82,3.94,5.83,5.83,0,0,0,2.16,2.38,5.61,5.61,0,0,0,2.9.8,5.71,5.71,0,0,0,3-.8,5.79,5.79,0,0,0,2.17-2.38,8.61,8.61,0,0,0,.82-3.94,8.76,8.76,0,0,0-.8-4A5.68,5.68,0,0,0,347.71,24.52Z"/><path class="cls-1" d="M112.38,24.2a5.63,5.63,0,0,0-2.72.68,4.9,4.9,0,0,0-2,2,6.64,6.64,0,0,0-.59,2h10.24a4.71,4.71,0,0,0-1.48-3.46A5,5,0,0,0,112.38,24.2Z"/><path class="cls-1" d="M187.17,25.16a4.92,4.92,0,0,0-2.62-.72,5,5,0,0,0-2.6.72A5.15,5.15,0,0,0,180,27.3a7.82,7.82,0,0,0-.72,3.55,7.92,7.92,0,0,0,.72,3.56,5.11,5.11,0,0,0,1.9,2.16,5.05,5.05,0,0,0,5.2,0,5,5,0,0,0,1.9-2.16,7.79,7.79,0,0,0,.73-3.56,8.1,8.1,0,0,0-.7-3.55A5.09,5.09,0,0,0,187.17,25.16Z"/><path class="cls-1" d="M395.78,32.15a3.22,3.22,0,0,0-1.54,1.14,3,3,0,0,0-.48,1.68,3.08,3.08,0,0,0,.46,1.7,3.13,3.13,0,0,0,1.34,1.1,5.63,5.63,0,0,0,4.45-.12,5.56,5.56,0,0,0,1.78-1.42,6.53,6.53,0,0,0,1.12-2,8.47,8.47,0,0,0,.42-2.34v-.12h-4.76A7.73,7.73,0,0,0,395.78,32.15Z"/><path class="cls-1" d="M424.16,24.66a5.93,5.93,0,0,0-3.26-.9,6,6,0,0,0-3.3.9,6.14,6.14,0,0,0-2.22,2.48,8,8,0,0,0-.8,3.71,8.15,8.15,0,0,0,.8,3.72,6,6,0,0,0,2.22,2.48,6.07,6.07,0,0,0,3.3.88,5.95,5.95,0,0,0,5.5-3.36,8,8,0,0,0,.82-3.72,7.93,7.93,0,0,0-.82-3.71A6.26,6.26,0,0,0,424.16,24.66Z"/><path class="cls-2" d="M16.59,29.62a8,8,0,1,0,0-11.26A8,8,0,0,0,16.59,29.62Z"/><path class="cls-3" d="M40.74,36.23a21.63,21.63,0,0,0,1.94-3.61,2.44,2.44,0,0,0,.1-.24v0a4.44,4.44,0,0,0-8.25-3.28l-.05.12a13.42,13.42,0,0,1-2.81,4.19l0,0h0a13.15,13.15,0,0,1-4.33,2.89A13.33,13.33,0,0,1,17.12,11.67a4.44,4.44,0,0,0,0-8.2,4.38,4.38,0,0,0-3.26-.06l-.32.13a22.21,22.21,0,0,0,17.18,41,22.64,22.64,0,0,0,3.74-2l9.74,9.75A4.45,4.45,0,0,0,50.49,46Z"/><path class="cls-4" d="M44.9,7.58a4.44,4.44,0,1,0-6.28,0A4.43,4.43,0,0,0,44.9,7.58Z"/><path class="cls-4" d="M27.21,11.62l.24.11.07,0a13.42,13.42,0,0,1,4.12,2.81,13.27,13.27,0,0,1,2.89,4.32h0a4.44,4.44,0,0,0,8.29-3.2l-.16-.39A22.31,22.31,0,0,0,30.72,3.46a4.44,4.44,0,0,0-3.51,8.16Z"/><path class="cls-5" d="M83.67,18a8.15,8.15,0,0,1,4.54-1.22,7.24,7.24,0,0,1,4.64,1.36,6.5,6.5,0,0,1,2.29,3.72h5.28a11,11,0,0,0-4-6.95,12.92,12.92,0,0,0-8.17-2.46,13.59,13.59,0,0,0-7.18,1.84,12.24,12.24,0,0,0-4.65,5.11A16.82,16.82,0,0,0,74.8,27a16.78,16.78,0,0,0,1.62,7.55,12.1,12.1,0,0,0,4.65,5.08,13.68,13.68,0,0,0,7.18,1.82A13.17,13.17,0,0,0,96.44,39a10.52,10.52,0,0,0,4-6.66H95.14a6,6,0,0,1-2.29,3.5,7.67,7.67,0,0,1-4.64,1.26,8.23,8.23,0,0,1-4.54-1.22,7.9,7.9,0,0,1-2.92-3.48,13.16,13.16,0,0,1-1-5.43,13.37,13.37,0,0,1,1-5.46A7.8,7.8,0,0,1,83.67,18Z"/><path class="cls-5" d="M117.59,21.6a9.85,9.85,0,0,0-5.16-1.32,10.31,10.31,0,0,0-5.35,1.36,9.34,9.34,0,0,0-3.56,3.76A11.9,11.9,0,0,0,102.26,31a11.3,11.3,0,0,0,1.28,5.44,9.09,9.09,0,0,0,3.56,3.66,10.44,10.44,0,0,0,5.28,1.3,10.18,10.18,0,0,0,4.25-.86,9,9,0,0,0,3.16-2.36,9.22,9.22,0,0,0,1.84-3.38h-4.88a4.33,4.33,0,0,1-1.62,1.92,5,5,0,0,1-2.78.72,5.35,5.35,0,0,1-2.74-.7,4.94,4.94,0,0,1-1.93-2.06A6.78,6.78,0,0,1,107,32h15.07a5.85,5.85,0,0,0,.08-1v-.88a10.31,10.31,0,0,0-1.2-5A9.1,9.1,0,0,0,117.59,21.6Zm-10.48,7.32a6.64,6.64,0,0,1,.59-2,4.9,4.9,0,0,1,2-2,5.63,5.63,0,0,1,2.72-.68,5,5,0,0,1,3.49,1.26,4.71,4.71,0,0,1,1.48,3.46Z"/><path class="cls-5" d="M140.13,21.3a8.05,8.05,0,0,0-4.17-1,7.69,7.69,0,0,0-4.08,1,7,7,0,0,0-2.64,2.8l-.36-3.36h-4.24V40.93h4.8V30.16A6.9,6.9,0,0,1,130.1,27a4.81,4.81,0,0,1,1.8-2,5,5,0,0,1,2.58-.68,4,4,0,0,1,3.32,1.36,6,6,0,0,1,1.12,3.89V40.93h4.81V29.16a11.38,11.38,0,0,0-.94-4.88A6.79,6.79,0,0,0,140.13,21.3Z"/><path class="cls-5" d="M153.65,15.44h-4.24l-.56,5.32h-3.44v4h3.44v9.37a8.12,8.12,0,0,0,.84,4A4.81,4.81,0,0,0,152,40.29a8.92,8.92,0,0,0,3.54.64H159V36.85h-2.48a3.34,3.34,0,0,1-2.22-.58,2.72,2.72,0,0,1-.66-2.1V24.8h5.48v-4h-5.48Z"/><path class="cls-5" d="M168.18,22.26a8.16,8.16,0,0,0-1.8,2.26l-.44-3.76h-4.28V40.93h4.8V31.28a8.11,8.11,0,0,1,.44-2.86,4.32,4.32,0,0,1,1.22-1.8,4.84,4.84,0,0,1,1.86-1,8.48,8.48,0,0,1,2.28-.3H174V20.28a9.52,9.52,0,0,0-3.23.52A7.85,7.85,0,0,0,168.18,22.26Z"/><path class="cls-5" d="M189.73,21.62a10.68,10.68,0,0,0-10.36,0,9.59,9.59,0,0,0-3.62,3.72,11.26,11.26,0,0,0-1.32,5.54,11.2,11.2,0,0,0,1.3,5.47,9.34,9.34,0,0,0,3.6,3.72,10.7,10.7,0,0,0,10.37,0,9.68,9.68,0,0,0,3.62-3.7,11.16,11.16,0,0,0,1.32-5.52,11.27,11.27,0,0,0-1.3-5.53A9.51,9.51,0,0,0,189.73,21.62ZM189,34.41a5,5,0,0,1-1.9,2.16,5.05,5.05,0,0,1-5.2,0,5.11,5.11,0,0,1-1.9-2.16,7.92,7.92,0,0,1-.72-3.56A7.82,7.82,0,0,1,180,27.3,5.15,5.15,0,0,1,182,25.16a5,5,0,0,1,2.6-.72,4.92,4.92,0,0,1,2.62.72,5.09,5.09,0,0,1,1.89,2.14,8.1,8.1,0,0,1,.7,3.55A7.79,7.79,0,0,1,189,34.41Z"/><polygon class="cls-5" points="210.13 20.76 204.81 36.37 199.48 20.76 194.44 20.76 201.88 40.93 207.65 40.93 215.09 20.76 210.13 20.76"/><path class="cls-5" d="M229.1,21.26a11.94,11.94,0,0,0-9.19-.12,7.9,7.9,0,0,0-3.18,2.4,7.19,7.19,0,0,0-1.44,3.7H220A3.26,3.26,0,0,1,221.46,25a5.1,5.1,0,0,1,2.8-.74,4.74,4.74,0,0,1,2.36.52A3.12,3.12,0,0,1,228,26.34a7.08,7.08,0,0,1,.44,2.66h-5.08a12.62,12.62,0,0,0-4.73.78,6.4,6.4,0,0,0-2.9,2.19,5.66,5.66,0,0,0-1,3.32,6.06,6.06,0,0,0,.8,3A5.73,5.73,0,0,0,218,40.57a9,9,0,0,0,4.13.84,8.58,8.58,0,0,0,2.3-.28,7,7,0,0,0,1.82-.78,6.67,6.67,0,0,0,2.44-2.66l.48,3.24h4.08V28.44a8.56,8.56,0,0,0-1.06-4.38A7,7,0,0,0,229.1,21.26Zm-.8,11a8.44,8.44,0,0,1-.48,2,5.86,5.86,0,0,1-1,1.74,4.54,4.54,0,0,1-1.56,1.2,4.83,4.83,0,0,1-2.06.42,4.63,4.63,0,0,1-1.8-.32,2.53,2.53,0,0,1-1.17-.92,2.59,2.59,0,0,1-.4-1.44,2.68,2.68,0,0,1,.4-1.46,2.63,2.63,0,0,1,1.33-1,6.39,6.39,0,0,1,2.32-.36h4.44Z"/><path class="cls-5" d="M252.84,12.91l-10.29,28h4.2L249.21,34h11.55l2.44,6.92h4.29l-10.29-28Zm-2.49,17.9L255,17.72l4.62,13.09Z"/><path class="cls-5" d="M282.89,31.53a7.83,7.83,0,0,1-.72,3.52,5.24,5.24,0,0,1-2,2.2,5.32,5.32,0,0,1-2.82.76,4.43,4.43,0,0,1-3.56-1.44,6.4,6.4,0,0,1-1.24-4.29V20.76h-4v12a11.1,11.1,0,0,0,.94,4.84,6.43,6.43,0,0,0,2.69,2.88,8.34,8.34,0,0,0,4.1,1,7.79,7.79,0,0,0,4.08-1,6.78,6.78,0,0,0,2.68-2.88l.28,3.44h3.57V20.76h-4Z"/><path class="cls-5" d="M306.35,23.88a6.84,6.84,0,0,0-2.8-2.66,8.87,8.87,0,0,0-4.17-.94,9.33,9.33,0,0,0-8.54,5.12,11.64,11.64,0,0,0-1.22,5.45,11.66,11.66,0,0,0,1.22,5.42,9.24,9.24,0,0,0,8.5,5.14,8.57,8.57,0,0,0,3.12-.52,7.65,7.65,0,0,0,2.33-1.34,8.35,8.35,0,0,0,1.56-1.74l.44,3.12h3.56V12.11h-4Zm-.82,10.69a5.82,5.82,0,0,1-2.22,2.48,6.25,6.25,0,0,1-3.33.88,6.06,6.06,0,0,1-3.24-.88,5.93,5.93,0,0,1-2.24-2.48,8.28,8.28,0,0,1-.8-3.72,8.18,8.18,0,0,1,.8-3.71,6.11,6.11,0,0,1,2.24-2.48,6,6,0,0,1,3.24-.9,6.18,6.18,0,0,1,3.33.9,6,6,0,0,1,2.22,2.48,8.31,8.31,0,0,1,.78,3.71A8.41,8.41,0,0,1,305.53,34.57Z"/><path class="cls-5" d="M316.16,11.91a2.71,2.71,0,0,0-1.91.7,2.36,2.36,0,0,0-.74,1.78,2.49,2.49,0,0,0,.74,1.85,2.68,2.68,0,0,0,1.91.72,2.65,2.65,0,0,0,1.87-.72,2.44,2.44,0,0,0,.77-1.85,2.32,2.32,0,0,0-.77-1.78A2.68,2.68,0,0,0,316.16,11.91Z"/><rect class="cls-5" x="314.11" y="20.76" width="4" height="20.17"/><path class="cls-5" d="M327.92,15.71H324.4l-.48,5.05h-3.48v3.4h3.48V34.53a8,8,0,0,0,.76,3.8,4.37,4.37,0,0,0,2.16,2,8.28,8.28,0,0,0,3.28.6h3.33v-3.4h-2.33a3.86,3.86,0,0,1-2.48-.62,3,3,0,0,1-.72-2.34V24.16h5.73v-3.4h-5.73Z"/><path class="cls-5" d="M349.9,21.6a10.61,10.61,0,0,0-10.25,0,9.49,9.49,0,0,0-3.6,3.7,11.34,11.34,0,0,0-1.32,5.58,11.28,11.28,0,0,0,1.3,5.51,9.33,9.33,0,0,0,3.56,3.7,9.94,9.94,0,0,0,5.1,1.32,10.17,10.17,0,0,0,5.17-1.32,9.45,9.45,0,0,0,3.58-3.68,11.42,11.42,0,0,0,1.3-5.56,11.46,11.46,0,0,0-1.3-5.57A9.57,9.57,0,0,0,349.9,21.6Zm-.06,13.19a5.79,5.79,0,0,1-2.17,2.38,5.71,5.71,0,0,1-3,.8,5.61,5.61,0,0,1-2.9-.8,5.83,5.83,0,0,1-2.16-2.38,8.48,8.48,0,0,1-.82-3.94,8.5,8.5,0,0,1,.82-4,5.64,5.64,0,0,1,5.14-3.18,5.56,5.56,0,0,1,5.09,3.18,8.76,8.76,0,0,1,.8,4A8.61,8.61,0,0,1,349.84,34.79Z"/><path class="cls-5" d="M363.18,22.26a7.49,7.49,0,0,0-1.76,2.3l-.36-3.8h-3.6V40.93h4v-10a8.62,8.62,0,0,1,.48-3.08,4.71,4.71,0,0,1,1.35-2,5.08,5.08,0,0,1,2-1,9.16,9.16,0,0,1,2.37-.3h1.44V20.28a9.8,9.8,0,0,0-3.34.52A7.8,7.8,0,0,0,363.18,22.26Z"/><polygon class="cls-5" points="374.95 12.91 370.95 12.91 370.95 40.93 387.76 40.93 387.76 37.77 374.95 37.77 374.95 12.91"/><path class="cls-5" d="M403.53,21.28a11.23,11.23,0,0,0-8.85-.18,8.11,8.11,0,0,0-3.14,2.32A6.85,6.85,0,0,0,390.08,27h4a3.81,3.81,0,0,1,1.6-2.54,5.47,5.47,0,0,1,3.09-.86,5.13,5.13,0,0,1,2.58.58A3.7,3.7,0,0,1,402.89,26a7.13,7.13,0,0,1,.52,2.92h-5.24a12.68,12.68,0,0,0-4.61.76,6.53,6.53,0,0,0-3,2.19,5.62,5.62,0,0,0-1,3.42,6.19,6.19,0,0,0,.8,3.06,5.65,5.65,0,0,0,2.44,2.26,9,9,0,0,0,4.12.84,8.63,8.63,0,0,0,2.35-.3,7.13,7.13,0,0,0,1.88-.82,6,6,0,0,0,1.42-1.24,9.52,9.52,0,0,0,1-1.52l.32,3.4h3.48V28.44a9.09,9.09,0,0,0-1-4.34A6.75,6.75,0,0,0,403.53,21.28Zm-.2,10.57a8.47,8.47,0,0,1-.42,2.34,6.53,6.53,0,0,1-1.12,2A5.56,5.56,0,0,1,400,37.65a5.63,5.63,0,0,1-4.45.12,3.13,3.13,0,0,1-1.34-1.1,3.08,3.08,0,0,1-.46-1.7,3,3,0,0,1,.48-1.68,3.22,3.22,0,0,1,1.54-1.14,7.73,7.73,0,0,1,2.79-.42h4.76Z"/><path class="cls-5" d="M430.05,25.42a9.44,9.44,0,0,0-3.43-3.76,9.34,9.34,0,0,0-5.08-1.38,8.09,8.09,0,0,0-4.3,1.06,8.3,8.3,0,0,0-2.71,2.58V12.11h-4V40.93h3.6l.4-3.08a8,8,0,0,0,1.69,1.84A7.5,7.5,0,0,0,418.56,41a9,9,0,0,0,3,.46,9.42,9.42,0,0,0,5.08-1.36,9.25,9.25,0,0,0,3.43-3.76,11.8,11.8,0,0,0,1.22-5.41A11.86,11.86,0,0,0,430.05,25.42Zm-3.65,9.15a6.32,6.32,0,0,1-8.8,2.48,6,6,0,0,1-2.22-2.48,8.15,8.15,0,0,1-.8-3.72,8,8,0,0,1,.8-3.71,6.14,6.14,0,0,1,2.22-2.48,6,6,0,0,1,3.3-.9,5.93,5.93,0,0,1,3.26.9,6.26,6.26,0,0,1,2.24,2.48,7.93,7.93,0,0,1,.82,3.71A8,8,0,0,1,426.4,34.57Z"/></g></g></svg>