<svg xmlns="http://www.w3.org/2000/svg" viewBox="0 0 32 32"><defs><style>.cls-1{fill:none;}.cls-2{fill:#ec1c24;}.cls-3{fill:#128aeb;}.cls-4{fill:#ffb901;}</style></defs><g id="Layer_2" data-name="Layer 2"><g id="Layer_1-2" data-name="Layer 1"><rect class="cls-1" width="32" height="32"/><circle class="cls-2" cx="14.1" cy="14.56" r="4.11"/><rect class="cls-3" x="21.53" y="17.41" width="4.58" height="13.75" rx="2.29" transform="translate(-10.19 23.96) rotate(-45)"/><circle class="cls-4" cx="24.18" cy="4.48" r="2.29"/><path class="cls-4" d="M21.7,13.17a2.25,2.25,0,0,1-1.24-1.24h0A6.92,6.92,0,0,0,19,9.7a6.79,6.79,0,0,0-2.12-1.45h0l-.12-.06A2.29,2.29,0,0,1,18.49,4a11.59,11.59,0,0,1,6.16,6.1l.08.21a2.25,2.25,0,0,1,0,1.65A2.29,2.29,0,0,1,21.7,13.17Z"/><path class="cls-3" d="M24.71,18.88h0l-.05.12a11.46,11.46,0,1,1-15-15L9.79,4a2.27,2.27,0,0,1,1.68,0,2.3,2.3,0,0,1,0,4.24,6.87,6.87,0,1,0,9,9,.14.14,0,0,0,0-.06,2.29,2.29,0,0,1,4.26,1.69Z"/></g></g></svg>